<svg xmlns="http://www.w3.org/2000/svg" viewBox="0 0 161.83 159.9"><defs><style>.cls-1{stroke:#000;stroke-miterlimit:10;stroke-width:5px;}</style></defs><g id="Layer_2" data-name="Layer 2"><g id="Layer_1-2" data-name="Layer 1"><path class="cls-1" d="M118.21,9.15h0C114.26,7.64,100-1,97.67,4.09c-1.59,3.8,14.8,6.07,18.27,9.32,67.19,34.34,40.88,140.32-34.69,139.14-106,1.82-90.1-178.3,14.21-127.79-12,8.42,1,28.49,9.82,33.47-2.18,1.52-3.39,3.69-4.69,5.71C80.66,34.81,34.18,45.74,29,80.54c-5.77-4.29-14.19,1.53-11,9.34,1.68,4.4,8.44,5.85,11.73,2.36C32.47,113.41,52.83,123.11,76,120.3c12.59-1.2,5.55-6.87,9.51-9.87,1.73-.56,2.44.74,3.42,2.4,2.62,7.88,16.31,8.14,23.16,6.55,4.67-.71,9.29-4.72,8.92-10.18.19-5.84-9.4-4.92-7.62-10.2,4.48-6.82,20.85,2.63,24.76-13,1.32-6.91-1.39-8.11-3.78-12.5-3.17-8.38-12.74-14.86-21.57-17,8.46-27.5-23.67-46.6-48-45.81-35.49-.8-63.38,32.57-62.27,68a78.81,78.81,0,0,0,78.72,78.72C161.77,158.63,189.82,45.74,118.21,9.15ZM24.58,89.33c-5.24,0-5.23-8.14,0-8.14S29.82,89.33,24.58,89.33Zm88.79-29a23.91,23.91,0,0,1,16.1,13.7c1.79,3.64,4.4,4.63,3.29,9.24-1,4.88-5.55,6.79-15.29,6.35-9-.56-14.22,12.57-4.57,16.18,5.43,1.65,1.08,6.72-2.19,7-6.31.74-15.22,2.43-18.26-4.23-3.5-8.52-15.74-4.77-13.62,4.21C-1.55,125.33,38,15.18,92.28,60.86c10.2,12.53,8.72,4.37,17.2-2C110.8,59.45,112.11,59.91,113.37,60.37ZM107.7,52.7h0C101,49.65,90.23,33.26,96.87,27.37,106.88,25.75,110,46.09,107.7,52.7Z"/></g></g></svg>